# xmcd CD database file
# Copyright (C) 1993-1998 Ti Kan
#
# Track frame offsets:
#  175
#  10050
#  32977
#  44762
#  64770
#  78605
#  88962
#  103350
#  112895
#  129272
#  140217
#
# Disc length: 1969 seconds
#
# Revision: 1
# Processed by: cddbd v1.4b41PL1 Copyright (c) Steve Scherf et al.
# Submitted via: KiC 2.1 - (C) 1996-1998 Alwin Hoogerdijk
#
DISCID=9f07af0b
DTITLE=Stuart Duncan
DYEAR=1900
DGENRE=
TTITLE0=Brushy Fork of John's Creek and Mason's Apron
TTITLE1=G Forces
TTITLE2=Thai Clips
TTITLE3=The Passing
TTITLE4=Miles to Go
TTITLE5=Lee Highway Blues
TTITLE6=Lonely Moon
TTITLE7=Whistlin' Rufus
TTITLE8=The Summer of My Dreams
TTITLE9=My Dixie Home
TTITLE10=Two O'Clock in the Morning
EXTD=
EXTT0=
EXTT1=
EXTT2=
EXTT3=
EXTT4=
EXTT5=
EXTT6=
EXTT7=
EXTT8=
EXTT9=
EXTT10=
PLAYORDER=
